<svg width="176.916016" height="214.075928" viewBox="0 0 176.916 214.076" fill="none" xmlns="http://www.w3.org/2000/svg" xmlns:xlink="http://www.w3.org/1999/xlink">
	<desc>
			Created with Pixso.
	</desc>
	<defs/>
	<path id="Vector" d="M63.51 89.29C51.15 88.92 4.95 53.99 1.04 62.14C-2.88 70.29 4.37 93.47 20.35 102.23C36.33 111 62.16 110.13 70.86 115.34C79.56 120.56 81.59 126.64 81.09 128.64C80.58 130.65 24.34 120.7 16.48 131.24C8.62 141.79 19.34 154.27 35.48 160.32C51.62 166.36 84.14 146.58 93.24 148.38C102.33 150.17 107.08 157.59 104.21 158.96C101.35 160.33 66.41 167.76 56.35 174.95C46.29 182.15 44.84 191.96 64.62 192.14C84.4 192.31 107.84 173.97 114.47 176.36C121.1 178.76 119.27 182.28 116.04 184.13C112.81 185.98 89.69 195.35 82.39 200.34C75.09 205.32 90.14 212.77 95.69 213.92C101.25 215.07 116.73 209.38 120.68 206.59C124.63 203.81 126.29 196.25 130.33 196.07C134.37 195.89 136.22 206.46 138.21 207.55C140.21 208.65 150.23 204.42 150.62 201.58C151.01 198.74 143.98 193.9 144.87 189.64C145.76 185.39 153.77 188.59 160.27 181.94C166.76 175.28 177.87 153.17 174.56 145.06C171.25 136.96 146.64 166.45 138.41 170.12C132.23 171.93 127.88 169.01 130.43 165.14C132.97 161.27 177.68 126.51 176.9 115.12C176.12 103.74 173.94 106.55 167.98 109.42C162.02 112.3 134.18 143.64 127.85 139.63C121.51 135.63 164.76 96 163.9 80.83C163.05 65.65 157.38 49.57 149.53 51C141.69 52.42 130.45 99.88 118.67 103.5C106.88 107.11 116.01 98.6 117.79 90.09C119.57 81.57 135.26 46.99 131.71 39C128.15 31.01 126.51 22.1 117.22 25.4C107.93 28.7 102.2 71.74 96.04 71.17C89.89 70.61 99.6 46.82 94.87 30.28C90.14 13.74 73.96 2.12 69.65 5.38C65.34 8.64 65.57 8.52 67.64 12.82C69.71 17.12 78.99 30.28 80.04 39.78C81.08 49.27 83.72 55.35 80.64 55.07C77.57 54.79 73.31 45.96 71.41 38.34C69.51 30.73 66.45 13.98 61.87 10.6C57.3 7.21 44.14 -7.91 28.18 5.35C12.22 18.61 21.35 34.51 28.31 44.68C35.28 54.85 44.18 61.15 53.3 69.7C62.41 78.24 69.03 89.46 63.51 89.29Z" fill="#00936D" fill-opacity="1.000000" fill-rule="nonzero"/>
</svg>
