<svg width="167.000000" height="76.000000" viewBox="0 0 167 76" fill="none" xmlns="http://www.w3.org/2000/svg" xmlns:xlink="http://www.w3.org/1999/xlink">
	<defs>
		<clipPath id="clip317_103">
			<rect id="ДАЛЕКО И БЛИЗКО ЛОГО 2 1" rx="-0.500000" width="166.000000" height="75.000000" transform="translate(0.500000 0.500000)" fill="white" fill-opacity="0"/>
		</clipPath>
	</defs>
	<rect id="ДАЛЕКО И БЛИЗКО ЛОГО 2 1" rx="-0.500000" width="166.000000" height="75.000000" transform="translate(0.500000 0.500000)" fill="#FFFFFF" fill-opacity="0"/>
	<g clip-path="url(#clip317_103)">
		<path id="Vector" d="M134.14 52.7C132.41 52.43 130.75 51.82 129.26 50.9C125.72 48.8 123.55 45.61 122.05 41.9C121.17 39.77 120.81 37.47 121.02 35.17C121.07 34.64 120.88 34.33 120.51 34.3C120.41 34.29 120.3 34.31 120.2 34.34C120.1 34.38 120.01 34.44 119.93 34.51C119.86 34.58 119.8 34.67 119.76 34.77C119.72 34.87 119.7 34.97 119.7 35.08C119.57 36.18 119.53 37.29 119.57 38.4C119.8 42.01 121.2 45.45 123.56 48.2C126.11 51.27 129.69 53.32 133.64 53.97C133.96 54.05 134.28 54.09 134.61 54.1C134.82 54.08 135.03 54.13 135.21 54.23C135.39 54.32 135.55 54.47 135.65 54.65C135.92 55.02 136.23 55.33 136.51 55.67C136.51 55.67 136.51 55.72 136.51 55.79C136.41 55.79 136.3 55.83 136.19 55.83C132.9 55.92 129.65 55.07 126.82 53.38C121.69 50.32 118.76 45.79 117.84 39.94C117.55 38.42 117.68 36.86 118.23 35.41C119.19 33.09 121.03 31.84 123.42 31.34C124.18 31.19 124.95 31.12 125.72 31.12C127.47 31.1 129.23 31.12 130.97 31.18C132.99 31.29 134.95 31.9 136.66 32.97C138.53 34.07 139.97 35.64 141.44 37.22C142.54 38.41 143.64 39.62 145.03 40.51C146.67 41.55 148.44 41.89 150.3 41.25C150.85 41.05 151.35 40.74 151.77 40.34C152.19 39.94 152.52 39.46 152.75 38.93C152.98 38.4 153.1 37.83 153.1 37.25C153.09 36.67 152.97 36.1 152.74 35.57C152.39 34.76 151.67 34.5 150.86 34.43C148.47 34.22 146.78 32.91 145.49 31C144.77 29.87 144.23 28.63 143.91 27.33C143.88 27.25 143.86 27.16 143.86 27.07C143.89 26.89 143.93 26.71 143.97 26.53C144.14 26.56 144.31 26.63 144.46 26.71C145.45 27.58 146.64 27.88 147.91 27.99C150 28.17 151.71 29.01 152.65 30.94C152.96 31.7 153.17 32.49 153.31 33.3C153.41 33.9 153.69 34.46 154.11 34.91C154.36 34.47 154.46 33.96 154.39 33.47C154.33 32.92 154.23 32.37 154.18 31.83C153.98 29.67 154.85 28.02 156.63 26.82C157 26.58 157.39 26.35 157.78 26.14C158.76 25.62 159.57 24.83 160.11 23.86C160.24 23.71 160.38 23.57 160.55 23.46C160.66 23.62 160.75 23.81 160.82 24.01C161.09 25.73 160.99 27.49 160.53 29.18C160.07 30.84 158.99 32.26 157.5 33.14C157.29 33.27 157.07 33.4 156.87 33.54C156.63 33.7 156.43 33.92 156.29 34.17C156.15 34.43 156.07 34.71 156.07 35.01C156.04 35.91 156.01 36.81 156.02 37.71C156.02 40.68 154.98 43.57 153.07 45.85C150.87 48.63 147.95 50.46 144.71 51.83C144.56 51.91 144.39 51.94 144.22 51.92C144.06 51.89 143.9 51.81 143.78 51.69C142.21 50.49 140.41 49.63 138.49 49.17C138.22 49.1 137.96 49.03 137.68 48.97C137.41 48.92 137.05 48.97 136.95 49.32C136.9 49.46 136.91 49.62 136.98 49.76C137.05 49.89 137.17 50 137.32 50.05C137.8 50.24 138.3 50.42 138.81 50.56C141.06 51.2 143.08 52.45 144.66 54.18C145.02 54.54 145.39 54.91 145.78 55.28C146.34 55.83 147.03 56.24 147.8 56.46C147.95 56.5 148.1 56.55 148.24 56.61C148.56 56.73 148.83 56.91 148.84 57.3C148.86 57.47 148.81 57.64 148.71 57.78C148.61 57.92 148.46 58.02 148.28 58.06C147.69 58.24 147.07 58.36 146.45 58.42C143.14 58.65 140.35 57.47 137.96 55.25C136.46 53.89 135.26 52.24 134.42 50.4C134.31 50.15 134.11 49.95 133.87 49.82C131.81 48.82 130 47.36 128.59 45.55C126.17 42.6 124.83 39.18 124.22 35.44C124.19 35.21 124.14 34.98 124.07 34.75C124.04 34.6 123.95 34.46 123.82 34.36C123.69 34.27 123.53 34.23 123.37 34.25C123.29 34.25 123.21 34.26 123.14 34.29C123.06 34.33 123 34.37 122.94 34.43C122.89 34.48 122.84 34.55 122.81 34.63C122.78 34.7 122.77 34.78 122.77 34.86C122.73 35.54 122.75 36.22 122.82 36.89C123.31 40.71 124.95 44.29 127.53 47.15C128.98 48.74 130.79 49.95 132.81 50.7C133.02 50.79 133.21 50.96 133.33 51.16C133.6 51.63 133.84 52.14 134.14 52.7ZM133.56 47.73C133.69 46.8 133.53 46.24 133.04 45.74C130.74 43.36 129.02 40.51 127.99 37.37C127.78 36.77 127.59 36.16 127.35 35.54C127.16 35.06 126.81 34.91 126.42 35.09C126.11 35.22 126 35.51 126.11 35.99C126.54 37.87 127.2 39.68 128.07 41.4C129.04 43.35 130.37 45.1 131.99 46.56C132.45 46.99 132.99 47.32 133.56 47.73ZM137.02 44.31C137.22 44.31 137.42 44.27 137.61 44.2C137.79 44.12 137.96 44.01 138.1 43.87C138.24 43.73 138.36 43.57 138.43 43.38C138.51 43.2 138.55 43 138.54 42.8C138.53 42.39 138.35 42.01 138.05 41.73C137.75 41.45 137.36 41.29 136.95 41.3C136.75 41.3 136.55 41.34 136.37 41.42C136.19 41.5 136.02 41.61 135.88 41.75C135.75 41.89 135.64 42.06 135.57 42.25C135.5 42.43 135.47 42.63 135.48 42.83C135.48 43.03 135.52 43.22 135.6 43.41C135.68 43.59 135.8 43.75 135.94 43.89C136.08 44.03 136.25 44.13 136.44 44.21C136.62 44.28 136.82 44.31 137.02 44.31Z" fill="#000000" fill-opacity="1.000000" fill-rule="nonzero"/>
		<path id="Vector" d="M138.52 19.1C138.32 19.18 138.14 19.3 137.99 19.45C137.84 19.6 137.72 19.78 137.64 19.98C137.02 21.18 136.69 22.51 136.69 23.87C136.67 25.25 136.52 26.61 135.82 27.85C135.17 29.02 134.09 29.89 132.81 30.3C132.66 30.35 132.51 30.37 132.35 30.37C132.08 30.37 131.7 30.19 131.43 30.19C133.07 29.7 134.48 28.67 135.04 27.14C135.04 27.12 135.04 27.1 135.06 27.08C135.38 26.33 135.5 25.51 135.42 24.69C135.34 23.88 135.05 23.09 134.59 22.42C134.78 22.65 134.95 22.89 135.11 23.15L135.2 23.12C135.12 22.42 135.05 21.71 134.93 21.01C134.88 20.72 134.8 20.43 134.7 20.14C134.56 19.69 134.5 19.27 134 19.04C133.78 18.93 133.61 18.76 133.51 18.54C133.41 18.33 133.37 18.08 133.42 17.85C133.45 17.63 133.54 17.43 133.68 17.27C133.83 17.1 134.02 16.99 134.23 16.94C134.46 16.88 134.71 16.88 134.93 16.97C135.16 17.05 135.35 17.2 135.48 17.4C135.62 17.59 135.69 17.83 135.68 18.06C135.67 18.3 135.58 18.53 135.43 18.71C135.36 18.79 135.32 18.88 135.31 18.98C135.3 19.09 135.32 19.19 135.36 19.28C135.6 19.91 135.81 20.56 136.03 21.18C136.23 20.75 136.43 20.3 136.65 19.86C136.74 19.68 136.84 19.52 136.96 19.36C137.08 19.24 137.15 19.08 137.16 18.91C137.17 18.74 137.13 18.57 137.03 18.44C136.97 18.3 136.94 18.15 136.94 18.01C136.94 17.86 136.97 17.71 137.03 17.58C137.09 17.44 137.17 17.32 137.28 17.22C137.39 17.12 137.52 17.04 137.66 16.99C137.8 16.93 137.94 16.9 138.09 16.9C138.24 16.9 138.39 16.92 138.52 16.98C138.66 17.03 138.78 17.11 138.89 17.22C138.99 17.32 139.08 17.45 139.13 17.58C139.2 17.72 139.23 17.87 139.23 18.03C139.24 18.18 139.21 18.33 139.15 18.47C139.1 18.62 139.01 18.74 138.9 18.85C138.79 18.96 138.66 19.05 138.52 19.1Z" fill="#000000" fill-opacity="1.000000" fill-rule="nonzero"/>
		<path id="Vector" d="M132.57 25.36C132.56 26.02 132.28 26.64 131.81 27.09C131.33 27.55 130.7 27.8 130.04 27.79C128.73 27.76 127.5 26.55 127.55 25.28C127.55 24.95 127.62 24.63 127.75 24.33C127.88 24.03 128.07 23.77 128.31 23.54C128.55 23.32 128.83 23.14 129.14 23.03C129.44 22.91 129.77 22.86 130.1 22.87C130.75 22.88 131.38 23.15 131.85 23.61C132.31 24.08 132.57 24.71 132.57 25.36ZM130.07 24.56C129.97 24.55 129.87 24.57 129.78 24.6C129.69 24.64 129.6 24.69 129.53 24.76C129.46 24.83 129.4 24.91 129.37 25C129.33 25.09 129.31 25.19 129.31 25.29C129.32 25.48 129.4 25.67 129.53 25.8C129.67 25.94 129.86 26.02 130.05 26.02C130.25 26.02 130.43 25.94 130.58 25.8C130.72 25.67 130.81 25.49 130.83 25.29C130.81 25.1 130.73 24.92 130.59 24.78C130.45 24.65 130.27 24.57 130.07 24.56Z" fill="#000000" fill-opacity="1.000000" fill-rule="nonzero"/>
		<path id="Vector" d="M130.02 20.05C127.02 20.05 124.58 22.36 124.58 25.21C124.58 25.73 124.66 26.25 124.82 26.74C125.19 27.82 125.89 28.75 126.83 29.38C127.26 29.68 127.73 29.91 128.22 30.07C128.8 30.26 129.41 30.36 130.02 30.36C130.58 30.36 131.12 30.28 131.65 30.13C132.74 29.83 133.7 29.19 134.39 28.3C135.08 27.42 135.46 26.33 135.48 25.21C135.48 22.36 133.03 20.05 130.02 20.05ZM130.18 29C129.68 29.02 129.19 28.94 128.72 28.76C128.26 28.59 127.83 28.32 127.47 27.98C127.11 27.64 126.82 27.23 126.62 26.77C126.42 26.32 126.31 25.83 126.31 25.34C126.3 24.85 126.39 24.37 126.57 23.92C126.76 23.47 127.03 23.06 127.37 22.72C127.71 22.38 128.12 22.1 128.57 21.92C129.02 21.73 129.5 21.63 129.98 21.63C130.98 21.62 131.93 22 132.65 22.69C133.37 23.37 133.79 24.31 133.83 25.29C133.89 27.32 132.19 29.1 130.18 29Z" fill="#000000" fill-opacity="1.000000" fill-rule="nonzero"/>
		<path id="Vector" d="M0.43 45.95C0.37 45.95 0.31 45.94 0.25 45.92C0.2 45.9 0.15 45.86 0.11 45.81C0.03 45.71 -0.01 45.58 0 45.45L0 43.34C-0.01 43.21 0.03 43.08 0.11 42.97C0.15 42.93 0.2 42.89 0.26 42.87C0.31 42.85 0.37 42.84 0.43 42.84L8.31 42.84C8.37 42.84 8.42 42.85 8.48 42.87C8.53 42.89 8.58 42.93 8.62 42.97C8.7 43.08 8.75 43.21 8.74 43.34L8.74 45.45C8.75 45.58 8.71 45.71 8.62 45.81C8.58 45.86 8.53 45.9 8.48 45.92C8.42 45.94 8.37 45.95 8.31 45.95C8.25 45.95 8.19 45.94 8.13 45.92C8.08 45.9 8.03 45.86 7.99 45.81C7.9 45.71 7.86 45.58 7.87 45.45L7.87 43.77L0.86 43.77L0.86 45.45C0.87 45.58 0.83 45.71 0.75 45.81C0.71 45.86 0.66 45.9 0.6 45.92C0.55 45.94 0.49 45.95 0.43 45.95ZM1.47 43.47L0.74 43.06L3.94 34.18C4.03 33.96 4.16 33.84 4.35 33.84C4.45 33.85 4.55 33.88 4.62 33.94C4.7 34 4.75 34.09 4.78 34.18L7.98 43.07L7.24 43.47L4.22 34.99L4.46 34.99L1.47 43.47Z" fill="#000000" fill-opacity="1.000000" fill-rule="nonzero"/>
		<path id="Vector" d="M9.65 43.77C9.57 43.78 9.49 43.76 9.43 43.72C9.36 43.67 9.31 43.61 9.28 43.53C9.25 43.46 9.23 43.38 9.22 43.3C9.22 43.22 9.23 43.14 9.26 43.06L12.53 34.19C12.55 34.09 12.6 34.01 12.68 33.95C12.76 33.89 12.85 33.85 12.95 33.85C13.05 33.85 13.14 33.89 13.22 33.95C13.29 34.01 13.35 34.09 13.37 34.19L16.65 43.08C16.68 43.15 16.69 43.23 16.69 43.31C16.68 43.4 16.66 43.48 16.62 43.55C16.59 43.62 16.53 43.67 16.47 43.71C16.4 43.75 16.33 43.78 16.25 43.77C16.17 43.78 16.08 43.75 16.01 43.7C15.94 43.64 15.87 43.56 15.84 43.47L12.78 34.99L13.13 34.99L10.05 43.47C10.02 43.56 9.97 43.64 9.89 43.69C9.82 43.75 9.74 43.77 9.65 43.77ZM10.39 41.41L10.72 40.56L15.23 40.56L15.56 41.41L10.39 41.41Z" fill="#000000" fill-opacity="1.000000" fill-rule="nonzero"/>
		<path id="Vector" d="M17.48 43.77C17.4 43.78 17.32 43.76 17.26 43.72C17.19 43.67 17.14 43.61 17.11 43.53C17.08 43.46 17.06 43.38 17.06 43.3C17.06 43.22 17.08 43.14 17.11 43.06L20.38 34.19C20.4 34.09 20.45 34.01 20.53 33.95C20.6 33.89 20.7 33.85 20.79 33.85C20.89 33.85 20.99 33.89 21.06 33.95C21.14 34.01 21.19 34.09 21.21 34.19L24.49 43.08C24.53 43.15 24.54 43.23 24.54 43.31C24.54 43.4 24.51 43.48 24.47 43.55C24.44 43.62 24.39 43.68 24.32 43.72C24.26 43.76 24.18 43.78 24.1 43.77C24.02 43.78 23.93 43.75 23.86 43.7C23.78 43.64 23.72 43.56 23.69 43.47L20.62 34.99L20.98 34.99L17.88 43.47C17.85 43.56 17.8 43.64 17.72 43.69C17.65 43.75 17.57 43.77 17.48 43.77Z" fill="#000000" fill-opacity="1.000000" fill-rule="nonzero"/>
		<path id="Vector" d="M26.23 43.77C26.17 43.78 26.12 43.76 26.06 43.74C26.01 43.72 25.96 43.68 25.92 43.64C25.88 43.59 25.85 43.53 25.83 43.47C25.8 43.4 25.79 43.34 25.8 43.27L25.8 34.34C25.79 34.28 25.8 34.21 25.83 34.15C25.85 34.08 25.88 34.03 25.92 33.98C25.96 33.93 26.01 33.89 26.06 33.87C26.12 33.84 26.17 33.83 26.23 33.84L31.45 33.84C31.51 33.84 31.57 33.85 31.62 33.87C31.67 33.89 31.72 33.93 31.76 33.97C31.84 34.06 31.88 34.18 31.88 34.31C31.88 34.43 31.84 34.56 31.76 34.65C31.72 34.69 31.67 34.73 31.62 34.75C31.57 34.78 31.51 34.79 31.45 34.79L26.67 34.79L26.67 38.3L30.15 38.3C30.21 38.3 30.27 38.31 30.33 38.33C30.38 38.36 30.43 38.39 30.47 38.44C30.55 38.53 30.59 38.66 30.59 38.78C30.59 38.91 30.55 39.03 30.47 39.12C30.43 39.17 30.38 39.21 30.33 39.23C30.27 39.25 30.21 39.27 30.15 39.26L26.67 39.26L26.67 42.81L31.45 42.81C31.5 42.81 31.56 42.82 31.62 42.85C31.67 42.87 31.71 42.91 31.75 42.95C31.84 43.04 31.88 43.16 31.88 43.28C31.89 43.35 31.88 43.41 31.85 43.48C31.83 43.54 31.8 43.6 31.75 43.65C31.71 43.69 31.67 43.72 31.61 43.75C31.56 43.77 31.5 43.78 31.45 43.78L26.23 43.77Z" fill="#000000" fill-opacity="1.000000" fill-rule="nonzero"/>
		<path id="Vector" d="M33.93 43.78C33.87 43.78 33.81 43.76 33.76 43.74C33.71 43.72 33.66 43.68 33.62 43.64C33.58 43.59 33.54 43.53 33.52 43.47C33.5 43.4 33.49 43.34 33.5 43.27L33.5 34.34C33.49 34.28 33.5 34.21 33.52 34.15C33.54 34.08 33.58 34.03 33.62 33.98C33.66 33.93 33.71 33.9 33.76 33.87C33.81 33.85 33.87 33.84 33.93 33.84C33.99 33.84 34.05 33.85 34.1 33.87C34.16 33.9 34.2 33.93 34.24 33.98C34.33 34.08 34.37 34.21 34.36 34.34L34.36 38.31L36.12 38.31L36.12 39.2L34.35 39.2L34.35 43.28C34.36 43.41 34.32 43.54 34.23 43.65C34.19 43.69 34.15 43.72 34.09 43.74C34.04 43.77 33.99 43.78 33.93 43.78ZM39.54 43.65C39.5 43.69 39.45 43.73 39.4 43.75C39.35 43.77 39.29 43.79 39.24 43.78C39.18 43.78 39.12 43.77 39.07 43.74C39.01 43.71 38.97 43.67 38.93 43.62L35.33 38.73L38.64 34C38.68 33.95 38.72 33.91 38.77 33.89C38.83 33.86 38.88 33.84 38.94 33.84C39 33.84 39.06 33.85 39.11 33.87C39.16 33.89 39.21 33.93 39.24 33.97C39.33 34.06 39.37 34.18 39.37 34.3C39.37 34.42 39.33 34.53 39.25 34.62L36.37 38.68L39.58 42.99C39.65 43.08 39.69 43.2 39.68 43.32C39.67 43.45 39.62 43.56 39.54 43.65Z" fill="#000000" fill-opacity="1.000000" fill-rule="nonzero"/>
		<path id="Vector" d="M44.71 43.9C44.09 43.91 43.49 43.79 42.93 43.54C42.39 43.28 41.91 42.92 41.52 42.47C41.11 41.99 40.8 41.44 40.6 40.85C40.16 39.54 40.16 38.11 40.6 36.8C40.8 36.21 41.11 35.66 41.52 35.18C41.91 34.73 42.39 34.37 42.93 34.12C43.48 33.86 44.09 33.73 44.7 33.73C45.31 33.73 45.92 33.86 46.48 34.12C47.02 34.37 47.5 34.73 47.89 35.18C48.3 35.66 48.61 36.21 48.82 36.8C49.25 38.12 49.25 39.54 48.82 40.85C48.61 41.44 48.3 41.99 47.89 42.47C47.5 42.92 47.02 43.28 46.48 43.54C45.92 43.79 45.32 43.91 44.71 43.9ZM44.71 42.96C45.2 42.97 45.69 42.86 46.13 42.65C46.57 42.44 46.96 42.14 47.27 41.77C47.6 41.38 47.86 40.93 48.02 40.45C48.38 39.39 48.38 38.24 48.02 37.17C47.86 36.69 47.6 36.24 47.27 35.85C46.96 35.48 46.57 35.18 46.13 34.97C45.68 34.77 45.19 34.66 44.7 34.66C44.21 34.66 43.72 34.77 43.27 34.97C42.83 35.18 42.45 35.48 42.13 35.85C41.81 36.24 41.56 36.69 41.4 37.17C41.04 38.24 41.04 39.39 41.4 40.45C41.56 40.93 41.81 41.38 42.13 41.77C42.45 42.14 42.83 42.44 43.27 42.65C43.72 42.86 44.21 42.97 44.71 42.96Z" fill="#000000" fill-opacity="1.000000" fill-rule="nonzero"/>
		<path id="Vector" d="M54.64 43.78C54.58 43.77 54.52 43.76 54.47 43.74C54.42 43.71 54.37 43.68 54.33 43.64C54.28 43.59 54.25 43.53 54.22 43.47C54.2 43.4 54.19 43.34 54.19 43.27L54.19 34.34C54.19 34.28 54.2 34.21 54.22 34.14C54.25 34.08 54.28 34.02 54.33 33.98C54.37 33.93 54.42 33.9 54.47 33.87C54.52 33.85 54.58 33.84 54.64 33.84C54.7 33.83 54.76 33.85 54.81 33.87C54.86 33.89 54.91 33.93 54.94 33.98C55.03 34.08 55.07 34.21 55.06 34.34L55.06 42.15L60.62 34.02C60.65 33.97 60.7 33.92 60.76 33.89C60.81 33.86 60.88 33.85 60.95 33.85C61 33.84 61.06 33.85 61.12 33.88C61.17 33.9 61.22 33.94 61.26 33.99C61.34 34.09 61.39 34.22 61.38 34.35L61.38 43.29C61.39 43.42 61.34 43.56 61.26 43.66C61.22 43.7 61.17 43.74 61.12 43.76C61.06 43.78 61.01 43.8 60.95 43.8C60.89 43.8 60.83 43.78 60.78 43.76C60.72 43.74 60.68 43.7 60.64 43.66C60.59 43.61 60.56 43.55 60.54 43.49C60.52 43.42 60.51 43.36 60.51 43.29L60.51 35.49L54.96 43.61C54.93 43.66 54.88 43.7 54.82 43.73C54.76 43.76 54.7 43.77 54.64 43.78Z" fill="#000000" fill-opacity="1.000000" fill-rule="nonzero"/>
		<path id="Vector" d="M67.35 43.77C67.29 43.78 67.22 43.77 67.15 43.75C67.09 43.73 67.03 43.69 66.98 43.64C66.94 43.6 66.9 43.54 66.88 43.47C66.85 43.41 66.84 43.34 66.84 43.28L66.84 34.34C66.84 34.28 66.85 34.21 66.87 34.15C66.89 34.08 66.93 34.03 66.97 33.98C67.01 33.93 67.05 33.89 67.11 33.87C67.16 33.84 67.22 33.83 67.28 33.84L72.02 33.84C72.07 33.84 72.13 33.85 72.17 33.87C72.22 33.89 72.27 33.93 72.3 33.97C72.39 34.07 72.43 34.2 72.42 34.33C72.43 34.46 72.38 34.58 72.3 34.68C72.27 34.72 72.22 34.75 72.17 34.77C72.13 34.79 72.07 34.8 72.02 34.8L67.73 34.8L67.73 37.92L70.48 37.92C70.97 37.91 71.45 38.04 71.86 38.29C72.27 38.54 72.6 38.89 72.82 39.31C73.05 39.78 73.17 40.3 73.16 40.82C73.17 41.35 73.05 41.88 72.82 42.35C72.6 42.78 72.27 43.14 71.86 43.4C71.45 43.65 70.97 43.78 70.48 43.76L67.35 43.77ZM67.72 42.82L70.47 42.82C70.8 42.83 71.12 42.74 71.41 42.57C71.69 42.4 71.91 42.15 72.06 41.86C72.22 41.52 72.3 41.16 72.29 40.79C72.3 40.42 72.22 40.06 72.06 39.73C71.91 39.44 71.69 39.2 71.41 39.03C71.12 38.87 70.8 38.78 70.47 38.79L67.72 38.79L67.72 42.82Z" fill="#000000" fill-opacity="1.000000" fill-rule="nonzero"/>
		<path id="Vector" d="M74.43 43.78C74.36 43.78 74.28 43.75 74.21 43.71C74.15 43.67 74.1 43.61 74.07 43.53C74.03 43.46 74.01 43.38 74 43.3C74 43.22 74.02 43.14 74.05 43.06L77.32 34.19C77.34 34.09 77.39 34.01 77.46 33.95C77.54 33.89 77.63 33.85 77.73 33.85C77.83 33.85 77.92 33.88 78 33.94C78.08 34.01 78.13 34.09 78.15 34.19L81.42 43.08C81.45 43.15 81.47 43.23 81.46 43.31C81.46 43.4 81.44 43.48 81.4 43.55C81.37 43.62 81.31 43.68 81.25 43.72C81.18 43.76 81.11 43.78 81.03 43.78C80.95 43.78 80.86 43.75 80.79 43.7C80.71 43.64 80.66 43.56 80.63 43.47L77.56 34.99L77.93 34.99L74.8 43.47C74.77 43.56 74.72 43.64 74.64 43.69C74.58 43.74 74.51 43.77 74.43 43.78Z" fill="#000000" fill-opacity="1.000000" fill-rule="nonzero"/>
		<path id="Vector" d="M83.18 43.78C83.12 43.78 83.06 43.76 83.01 43.74C82.96 43.71 82.91 43.68 82.87 43.64C82.82 43.59 82.79 43.53 82.77 43.47C82.74 43.4 82.73 43.34 82.74 43.27L82.74 34.34C82.73 34.28 82.74 34.21 82.77 34.15C82.79 34.08 82.82 34.03 82.87 33.98C82.91 33.93 82.96 33.9 83.01 33.87C83.06 33.85 83.12 33.84 83.18 33.84C83.24 33.83 83.3 33.85 83.35 33.87C83.4 33.89 83.45 33.93 83.49 33.98C83.57 34.08 83.61 34.21 83.6 34.34L83.6 42.15L89.14 34.02C89.18 33.97 89.22 33.93 89.28 33.9C89.33 33.87 89.39 33.85 89.46 33.85C89.52 33.85 89.58 33.86 89.64 33.88C89.69 33.9 89.75 33.94 89.79 33.99C89.87 34.09 89.92 34.22 89.91 34.35L89.91 43.29C89.92 43.43 89.87 43.56 89.79 43.66C89.75 43.7 89.7 43.74 89.65 43.76C89.59 43.78 89.53 43.8 89.48 43.8C89.42 43.8 89.36 43.78 89.31 43.76C89.25 43.74 89.2 43.7 89.16 43.66C89.08 43.56 89.04 43.42 89.04 43.29L89.04 35.49L83.49 43.61C83.45 43.66 83.41 43.7 83.35 43.73C83.3 43.76 83.24 43.77 83.18 43.78Z" fill="#000000" fill-opacity="1.000000" fill-rule="nonzero"/>
		<path id="Vector" d="M94.5 43.9C94.13 43.9 93.76 43.85 93.4 43.75C93.05 43.64 92.72 43.49 92.42 43.29C92.13 43.1 91.89 42.85 91.7 42.56C91.66 42.45 91.64 42.33 91.65 42.21C91.65 42.15 91.66 42.09 91.69 42.04C91.71 41.98 91.75 41.94 91.79 41.9C91.83 41.86 91.88 41.83 91.93 41.82C91.98 41.8 92.04 41.8 92.09 41.81C92.14 41.82 92.2 41.84 92.25 41.87C92.29 41.91 92.33 41.95 92.36 42C92.61 42.3 92.93 42.54 93.28 42.7C93.67 42.88 94.09 42.97 94.51 42.96C94.88 42.97 95.25 42.89 95.59 42.72C95.89 42.57 96.15 42.32 96.32 42.02C96.51 41.69 96.61 41.31 96.59 40.93C96.63 40.39 96.45 39.87 96.1 39.46C95.94 39.29 95.74 39.15 95.52 39.06C95.3 38.97 95.06 38.93 94.82 38.94L94.14 38.94C94.08 38.94 94.03 38.93 93.98 38.91C93.93 38.89 93.88 38.86 93.85 38.82C93.77 38.73 93.73 38.62 93.74 38.51C93.73 38.39 93.77 38.27 93.85 38.18C93.88 38.14 93.92 38.11 93.97 38.09C94.02 38.07 94.07 38.06 94.13 38.06L94.75 38.06C94.95 38.07 95.14 38.03 95.32 37.95C95.51 37.87 95.67 37.76 95.8 37.61C96.1 37.24 96.25 36.77 96.21 36.3C96.23 36.07 96.2 35.84 96.11 35.62C96.02 35.41 95.89 35.22 95.71 35.06C95.35 34.77 94.89 34.63 94.42 34.65C94.05 34.64 93.69 34.73 93.36 34.9C93.04 35.07 92.77 35.31 92.58 35.61C92.52 35.73 92.41 35.81 92.29 35.85C92.24 35.87 92.18 35.88 92.13 35.87C92.07 35.85 92.02 35.83 91.98 35.79C91.88 35.72 91.82 35.62 91.79 35.51C91.78 35.44 91.78 35.38 91.79 35.32C91.8 35.25 91.83 35.19 91.87 35.14C92.14 34.73 92.49 34.38 92.91 34.12C93.36 33.84 93.89 33.7 94.42 33.72C94.9 33.71 95.38 33.82 95.8 34.04C96.19 34.25 96.51 34.56 96.73 34.94C96.96 35.33 97.08 35.78 97.07 36.24C97.08 36.56 97.02 36.87 96.9 37.17C96.79 37.44 96.64 37.69 96.45 37.9C96.27 38.11 96.05 38.27 95.81 38.4C95.59 38.51 95.36 38.58 95.12 38.6L95.12 38.34C95.4 38.36 95.68 38.43 95.94 38.55C96.53 38.82 96.99 39.29 97.23 39.89C97.38 40.23 97.45 40.61 97.44 40.98C97.45 41.51 97.33 42.03 97.07 42.5C96.83 42.93 96.47 43.29 96.03 43.54C95.57 43.8 95.04 43.92 94.5 43.9Z" fill="#000000" fill-opacity="1.000000" fill-rule="nonzero"/>
		<path id="Vector" d="M99.66 43.77C99.61 43.78 99.55 43.76 99.49 43.74C99.44 43.72 99.39 43.68 99.35 43.64C99.27 43.53 99.22 43.4 99.23 43.27L99.23 34.34C99.22 34.21 99.27 34.08 99.35 33.98C99.39 33.93 99.44 33.9 99.49 33.87C99.55 33.85 99.61 33.84 99.66 33.84C99.72 33.84 99.78 33.85 99.84 33.87C99.89 33.9 99.94 33.93 99.98 33.98C100.06 34.08 100.11 34.21 100.1 34.34L100.1 38.31L101.86 38.31L101.86 39.2L100.1 39.2L100.1 43.28C100.11 43.41 100.06 43.54 99.98 43.65C99.94 43.69 99.89 43.72 99.83 43.75C99.78 43.77 99.72 43.78 99.66 43.77ZM105.27 43.65C105.23 43.7 105.19 43.73 105.14 43.75C105.08 43.78 105.03 43.79 104.97 43.78C104.91 43.78 104.85 43.77 104.8 43.74C104.75 43.71 104.7 43.67 104.67 43.62L101.07 38.73L104.38 34C104.41 33.95 104.46 33.91 104.51 33.89C104.56 33.86 104.62 33.84 104.68 33.84C104.73 33.84 104.79 33.85 104.84 33.87C104.9 33.89 104.94 33.93 104.98 33.97C105.06 34.06 105.11 34.18 105.11 34.3C105.1 34.42 105.06 34.53 104.99 34.62L102.11 38.68L105.32 42.99C105.4 43.08 105.44 43.2 105.43 43.32C105.41 43.45 105.36 43.56 105.27 43.65Z" fill="#000000" fill-opacity="1.000000" fill-rule="nonzero"/>
		<path id="Vector" d="M110.44 43.9C109.83 43.91 109.22 43.79 108.66 43.54C108.12 43.28 107.64 42.92 107.25 42.47C106.85 41.99 106.54 41.44 106.33 40.85C105.89 39.54 105.89 38.12 106.33 36.8C106.54 36.21 106.85 35.66 107.25 35.18C107.64 34.73 108.12 34.37 108.66 34.12C109.22 33.86 109.83 33.73 110.44 33.73C111.05 33.73 111.65 33.86 112.21 34.12C112.75 34.37 113.23 34.73 113.62 35.18C114.03 35.66 114.35 36.21 114.55 36.8C114.99 38.12 114.99 39.54 114.55 40.85C114.35 41.44 114.03 41.99 113.62 42.47C113.23 42.92 112.75 43.28 112.21 43.54C111.66 43.79 111.05 43.91 110.44 43.9ZM110.44 42.96C110.93 42.97 111.42 42.86 111.87 42.65C112.3 42.44 112.69 42.14 113.01 41.77C113.33 41.38 113.58 40.93 113.74 40.45C114.1 39.39 114.1 38.24 113.74 37.17C113.58 36.69 113.33 36.24 113.01 35.85C112.69 35.48 112.3 35.18 111.87 34.97C111.42 34.77 110.93 34.66 110.44 34.66C109.94 34.66 109.46 34.77 109.01 34.97C108.57 35.18 108.18 35.48 107.87 35.85C107.54 36.24 107.29 36.69 107.13 37.17C106.77 38.24 106.77 39.39 107.13 40.45C107.29 40.93 107.54 41.38 107.87 41.77C108.18 42.14 108.57 42.44 109.01 42.65C109.46 42.86 109.95 42.97 110.44 42.96Z" fill="#000000" fill-opacity="1.000000" fill-rule="nonzero"/>
		<path id="Vector" d="M92.69 49.62C95.49 58.25 101.31 65.59 109.09 70.3C116.87 75.01 126.09 76.78 135.07 75.28C144.05 73.79 152.2 69.13 158.02 62.16C163.84 55.19 166.95 46.37 166.78 37.3C166.62 28.24 163.19 19.53 157.11 12.78C151.04 6.02 142.74 1.66 133.71 0.49C124.68 -0.67 115.53 1.43 107.92 6.42C100.32 11.41 94.77 18.95 92.29 27.67" stroke="#000000" stroke-opacity="1.000000" stroke-width="1.000000"/>
	</g>
</svg>
