<svg width="44.000000" height="33.000000" viewBox="0 0 44 33" fill="none" xmlns="http://www.w3.org/2000/svg" xmlns:xlink="http://www.w3.org/1999/xlink">
	<desc>
			Created with Pixso.
	</desc>
	<defs/>
	<path id="mail" d="M2.75 27.5C2.75 27.77 2.8 28.04 2.88 28.29L15.12 15.12L2.75 5.5L2.75 27.5ZM39.11 30.17L26.7 16.95L22 20.5L17.5 16.93L4.88 30.17C5.08 30.22 38.91 30.22 39.11 30.17ZM41.25 27.5L41.25 5.5L28.87 15.12L41.11 28.29C41.19 28.04 41.25 27.77 41.25 27.5ZM4.12 2.75L22 16.5L39.87 2.75L4.12 2.75ZM5.5 0L38.5 0C41.53 0 44 2.46 44 5.5L44 27.5C44 30.53 41.53 33 38.5 33L5.5 33C2.46 33 0 30.53 0 27.5L0 5.5C0 2.46 2.46 0 5.5 0Z" fill="#000000" fill-opacity="1.000000" fill-rule="evenodd"/>
	<path id="mail" d="M2.88 28.29L15.12 15.12L2.75 5.5L2.75 27.5C2.75 27.77 2.8 28.04 2.88 28.29ZM26.7 16.95L22 20.5L17.5 16.93L4.88 30.17C5.08 30.22 38.91 30.22 39.11 30.17L26.7 16.95ZM41.25 5.5L28.87 15.12L41.11 28.29C41.19 28.04 41.25 27.77 41.25 27.5L41.25 5.5ZM22 16.5L39.87 2.75L4.12 2.75L22 16.5ZM38.5 0C41.53 0 44 2.46 44 5.5L44 27.5C44 30.53 41.53 33 38.5 33L5.5 33C2.46 33 0 30.53 0 27.5L0 5.5C0 2.46 2.46 0 5.5 0L38.5 0Z" stroke="#000000" stroke-opacity="0" stroke-width="25.000000"/>
</svg>
