<svg width="1060.741943" height="1477.710327" viewBox="0 0 1060.74 1477.71" fill="none" xmlns="http://www.w3.org/2000/svg" xmlns:xlink="http://www.w3.org/1999/xlink">
	<desc>
			Created with Pixso.
	</desc>
	<defs/>
	<path id="Форма 5" d="M1024.31 0.26C1133.55 173.67 976.52 432.63 783.08 490.43C355.16 618.3 300.62 804.88 300.62 1096.19C300.62 1329.27 181.58 1440.27 110.28 1477.27M1010.66 0.26C1119.9 173.67 962.87 423.38 769.43 481.18C341.51 609.05 286.97 795.63 286.97 1086.96C286.97 1320.02 156.12 1440.27 84.81 1477.27M994.73 2.57C1103.97 175.98 944.66 414.13 751.22 471.93C323.3 599.8 268.76 786.38 268.76 1077.71C268.76 1310.77 129.74 1440.27 58.43 1477.27M978.8 2.57C1088.04 175.98 926.45 404.88 733.02 462.68C305.1 590.55 250.56 777.13 250.56 1068.46C250.56 1301.52 107.95 1433.77 36.64 1470.77M962.87 0.26C1072.1 173.67 908.25 395.63 714.81 453.43C286.89 581.3 232.35 767.88 232.35 1059.21C232.35 1292.27 94.27 1422.72 22.96 1459.72M946.93 0.26C1056.17 173.67 890.04 386.38 696.6 444.19C268.68 572.06 214.14 758.63 214.14 1049.96C214.14 1283.02 71.53 1415.28 0.23 1452.27" stroke="#00936D" stroke-opacity="1.000000" stroke-width="1.000000"/>
</svg>
