<svg width="40.000000" height="40.000000" viewBox="0 0 40 40" fill="none" xmlns="http://www.w3.org/2000/svg" xmlns:xlink="http://www.w3.org/1999/xlink">
	<desc>
			Created with Pixso.
	</desc>
	<defs/>
	<path id="Vector" d="M20 0C9 0 0 9 0 20C0 31 9 40 20 40C31 40 40 31 40 20C40 9 31 0 20 0Z" fill="#29B6F6" fill-opacity="1.000000" fill-rule="nonzero"/>
	<path id="Vector" d="M30 11L26.29 30.1C26.29 30.1 26.09 31 25.09 31C24.5 31 24.2 30.7 24.2 30.7L16 24L12 22L6.9 20.6C6.9 20.6 6 20.29 6 19.6C6 19 6.9 18.7 6.9 18.7L28.2 10.2C28.2 10.2 28.9 10 29.29 10C29.59 10 29.9 10.1 29.9 10.5C30 10.79 30 11 30 11Z" fill="#FFFFFF" fill-opacity="1.000000" fill-rule="nonzero"/>
	<path id="Vector" d="M19 26.5L15.59 29.89C15.59 29.89 15.5 30 15.29 30C15.19 30 15.19 30 15.09 30L16.09 24L19 26.5Z" fill="#B0BEC5" fill-opacity="1.000000" fill-rule="nonzero"/>
	<path id="Vector" d="M25.9 14.2C25.7 14 25.4 13.9 25.2 14.1L12 22C12 22 14.09 27.9 14.4 28.9C14.7 29.9 15 29.9 15 29.9L16 23.9L25.79 14.8C26 14.7 26.09 14.4 25.9 14.2Z" fill="#CFD8DC" fill-opacity="1.000000" fill-rule="nonzero"/>
</svg>
