<svg width="50.000000" height="50.000000" viewBox="0 0 50 50" fill="none" xmlns="http://www.w3.org/2000/svg" xmlns:xlink="http://www.w3.org/1999/xlink">
	<desc>
			Created with Pixso.
	</desc>
	<defs>
		<clipPath id="clip28_294">
			<rect id="наверх" width="50.000000" height="50.000000" fill="white" fill-opacity="0"/>
		</clipPath>
	</defs>
	<g clip-path="url(#clip28_294)">
		<path id="path" d="M50 25C50 11.19 38.8 0 25 0C11.19 0 0 11.19 0 25C0 38.8 11.19 50 25 50C38.8 50 50 38.8 50 25ZM3.07 25C3.07 12.93 12.93 3.12 25 3.12C37.06 3.12 46.87 12.93 46.87 25C46.87 37.06 37.06 46.87 25 46.87C12.93 46.87 3.07 37.06 3.07 25ZM26.58 35.95L26.58 18.35L32.23 24C32.84 24.61 33.83 24.61 34.44 24C35.05 23.39 35.04 22.4 34.44 21.79L24.96 12.56L15.49 21.79C15.18 22.1 15.03 22.5 15.03 22.9C15.03 23.3 15.18 23.69 15.49 24C16.1 24.61 17.09 24.61 17.7 24L23.45 18.25L23.45 35.95C23.45 36.81 24.15 37.51 25.01 37.51C25.87 37.51 26.58 36.81 26.58 35.95Z" fill="#1A9876" fill-opacity="1.000000" fill-rule="nonzero"/>
	</g>
</svg>
